<svg xmlns="http://www.w3.org/2000/svg" xmlns:xlink="http://www.w3.org/1999/xlink" width="500" zoomAndPan="magnify" viewBox="0 0 375 374.999991" height="500" preserveAspectRatio="xMidYMid meet" version="1.0"><defs><clipPath id="312f8db819"><path d="M 1 18.332031 L 374 18.332031 L 374 356 L 1 356 Z M 1 18.332031 " clip-rule="nonzero"/></clipPath><clipPath id="d82dd2b46e"><path d="M 160 18.332031 L 346 18.332031 L 346 122 L 160 122 Z M 160 18.332031 " clip-rule="nonzero"/></clipPath></defs><g clip-path="url(#312f8db819)"><path fill="#f4b4b7" d="M 161.882812 18.332031 C 161.882812 18.332031 26.613281 26.488281 7.589844 118.902344 C -11.433594 211.320312 18.308594 309.171875 51.070312 321.253906 C 100.738281 339.523438 180.902344 378.332031 269.671875 336.050781 C 358.445312 293.769531 374.898438 221.285156 373.089844 195.164062 C 371.277344 169.039062 348.027344 128.117188 345.914062 113.769531 C 345.914062 113.769531 320.550781 132.644531 259.257812 108.636719 C 197.964844 84.625 163.996094 51.707031 161.882812 18.332031 Z M 161.882812 18.332031 " fill-opacity="1" fill-rule="nonzero"/></g><g clip-path="url(#d82dd2b46e)"><path fill="#f19820" d="M 161.882812 18.332031 C 161.882812 18.332031 215.929688 18.332031 268.769531 44.757812 C 321.609375 71.1875 345.761719 113.769531 345.761719 113.769531 C 345.761719 113.769531 323.570312 140.195312 232.835938 96.855469 C 142.105469 53.519531 161.882812 18.332031 161.882812 18.332031 Z M 161.882812 18.332031 " fill-opacity="1" fill-rule="nonzero"/></g></svg>