<svg xmlns="http://www.w3.org/2000/svg" xmlns:xlink="http://www.w3.org/1999/xlink" width="500" zoomAndPan="magnify" viewBox="0 0 375 374.999991" height="500" preserveAspectRatio="xMidYMid meet" version="1.0"><rect x="-37.5" width="450" fill="#ffffff" y="-37.499999" height="449.999989" fill-opacity="1"/><rect x="-37.5" width="450" fill="#ffffff" y="-37.499999" height="449.999989" fill-opacity="1"/><path fill="#ff66c4" d="M 311.660156 359.667969 C 319.300781 354.90625 324.820312 347.6875 328.109375 339.371094 C 335.003906 321.933594 332.492188 302.238281 329.363281 284.285156 C 325.953125 264.734375 321.558594 241.828125 331.726562 223.496094 C 336.847656 214.265625 345.441406 208.105469 353.121094 201.171875 C 360.828125 194.210938 366.75 186.089844 369.394531 175.925781 C 374.777344 155.230469 367.1875 134.070312 354.65625 117.566406 C 351 112.820312 347.03125 108.34375 342.757812 104.140625 C 341.921875 98.535156 341.378906 92.90625 340.597656 87.671875 C 339.292969 78.964844 337.410156 70.171875 333.132812 62.386719 C 331.046875 58.644531 328.480469 55.269531 325.433594 52.257812 C 322.386719 49.246094 318.980469 46.71875 315.214844 44.675781 C 299.617188 36.105469 280.597656 35.589844 263.410156 38.410156 C 259.066406 39.128906 254.777344 40.09375 250.542969 41.304688 C 244.574219 43.011719 238.558594 45.097656 232.316406 45.464844 C 220.1875 46.175781 209.3125 38.871094 198.625 34.171875 C 176.574219 24.441406 153.660156 17.585938 129.890625 13.601562 C 107.410156 9.855469 83.9375 8.527344 61.667969 14.300781 C 41.472656 19.53125 23.382812 31.058594 11.824219 48.652344 C 9.105469 52.730469 6.875 57.058594 5.136719 61.640625 C 3.398438 66.226562 2.195312 70.945312 1.53125 75.800781 C 0.203125 86.046875 2.050781 96.21875 5.945312 105.730469 C 10.15625 116.03125 16.152344 125.417969 21.433594 135.175781 C 26.828125 145.199219 30.890625 155.734375 33.621094 166.78125 C 39.28125 189.347656 40.445312 212.703125 44.003906 235.625 C 47.007812 254.988281 52.324219 273.867188 62.535156 290.75 C 71.699219 305.898438 84.800781 319.34375 101.8125 325.289062 C 111.496094 328.675781 121.757812 329.074219 131.867188 327.761719 C 143.46875 326.253906 154.734375 322.917969 166.320312 321.335938 C 171.789062 320.515625 177.269531 320.382812 182.773438 320.9375 C 188.273438 321.488281 193.621094 322.710938 198.816406 324.601562 C 208.863281 328.316406 218.042969 334.082031 226.964844 339.921875 C 235.902344 345.769531 244.667969 352.011719 254.289062 356.714844 C 263.476562 361.199219 273.320312 364.535156 283.53125 365.515625 C 293.226562 366.453125 303.304688 364.878906 311.660156 359.667969 Z M 311.660156 359.667969 " fill-opacity="1" fill-rule="nonzero"/></svg>